<mxfile host="app.diagrams.net" agent="Mozilla/5.0 (Windows NT 10.0; Win64; x64) AppleWebKit/537.36 (KHTML, like Gecko) Chrome/131.0.0.0 Safari/537.36" version="25.0.1">
  <diagram id="C5RBs43oDa-KdzZeNtuy" name="Page-1">
    <mxGraphModel grid="1" page="1" gridSize="10" guides="1" tooltips="1" connect="1" arrows="1" fold="1" pageScale="1" pageWidth="827" pageHeight="1169" math="0" shadow="0">
      <root>
        <mxCell id="WIyWlLk6GJQsqaUBKTNV-0" />
        <mxCell id="WIyWlLk6GJQsqaUBKTNV-1" parent="WIyWlLk6GJQsqaUBKTNV-0" />
        <mxCell id="BkXkO2_AsZ0Dx4q7YWzy-5" value="" style="edgeStyle=none;curved=1;rounded=0;orthogonalLoop=1;jettySize=auto;html=1;fontSize=12;startSize=8;endSize=8;" edge="1" parent="WIyWlLk6GJQsqaUBKTNV-1" source="BkXkO2_AsZ0Dx4q7YWzy-0" target="BkXkO2_AsZ0Dx4q7YWzy-4">
          <mxGeometry relative="1" as="geometry" />
        </mxCell>
        <mxCell id="BkXkO2_AsZ0Dx4q7YWzy-0" value="" style="verticalLabelPosition=bottom;verticalAlign=top;html=1;shape=mxgraph.flowchart.on-page_reference;" vertex="1" parent="WIyWlLk6GJQsqaUBKTNV-1">
          <mxGeometry x="210" y="110" width="70" height="60" as="geometry" />
        </mxCell>
        <mxCell id="BkXkO2_AsZ0Dx4q7YWzy-2" value="Inicio" style="text;strokeColor=none;fillColor=none;html=1;align=center;verticalAlign=middle;whiteSpace=wrap;rounded=0;fontSize=16;" vertex="1" parent="WIyWlLk6GJQsqaUBKTNV-1">
          <mxGeometry x="215" y="125" width="60" height="30" as="geometry" />
        </mxCell>
        <mxCell id="BkXkO2_AsZ0Dx4q7YWzy-3" style="edgeStyle=none;curved=1;rounded=0;orthogonalLoop=1;jettySize=auto;html=1;exitX=0.5;exitY=0;exitDx=0;exitDy=0;exitPerimeter=0;fontSize=12;startSize=8;endSize=8;" edge="1" parent="WIyWlLk6GJQsqaUBKTNV-1" source="BkXkO2_AsZ0Dx4q7YWzy-0" target="BkXkO2_AsZ0Dx4q7YWzy-0">
          <mxGeometry relative="1" as="geometry" />
        </mxCell>
        <mxCell id="BkXkO2_AsZ0Dx4q7YWzy-7" value="" style="edgeStyle=none;curved=1;rounded=0;orthogonalLoop=1;jettySize=auto;html=1;fontSize=12;startSize=8;endSize=8;" edge="1" parent="WIyWlLk6GJQsqaUBKTNV-1" source="BkXkO2_AsZ0Dx4q7YWzy-4" target="BkXkO2_AsZ0Dx4q7YWzy-6">
          <mxGeometry relative="1" as="geometry" />
        </mxCell>
        <mxCell id="BkXkO2_AsZ0Dx4q7YWzy-4" value="&amp;nbsp;Mostrar mensaje: &quot;Por favor, ingrese el radio del círculo: &quot;" style="shape=parallelogram;perimeter=parallelogramPerimeter;whiteSpace=wrap;html=1;fixedSize=1;verticalAlign=top;fillColor=#f8cecc;strokeColor=#b85450;" vertex="1" parent="WIyWlLk6GJQsqaUBKTNV-1">
          <mxGeometry x="85" y="280" width="320" height="80" as="geometry" />
        </mxCell>
        <mxCell id="BkXkO2_AsZ0Dx4q7YWzy-9" value="" style="edgeStyle=none;curved=1;rounded=0;orthogonalLoop=1;jettySize=auto;html=1;fontSize=12;startSize=8;endSize=8;exitX=0.473;exitY=1;exitDx=0;exitDy=0;exitPerimeter=0;" edge="1" parent="WIyWlLk6GJQsqaUBKTNV-1" source="BkXkO2_AsZ0Dx4q7YWzy-6">
          <mxGeometry relative="1" as="geometry">
            <mxPoint x="251.5" y="550" as="sourcePoint" />
            <mxPoint x="238.5" y="680" as="targetPoint" />
          </mxGeometry>
        </mxCell>
        <mxCell id="BkXkO2_AsZ0Dx4q7YWzy-6" value="Definir y asignar a la variable area el resultado de π * radio^2" style="whiteSpace=wrap;html=1;verticalAlign=top;fillColor=#dae8fc;strokeColor=#6c8ebf;" vertex="1" parent="WIyWlLk6GJQsqaUBKTNV-1">
          <mxGeometry x="135" y="470" width="220" height="80" as="geometry" />
        </mxCell>
        <mxCell id="BkXkO2_AsZ0Dx4q7YWzy-11" value="" style="edgeStyle=none;curved=1;rounded=0;orthogonalLoop=1;jettySize=auto;html=1;fontSize=12;startSize=8;endSize=8;" edge="1" parent="WIyWlLk6GJQsqaUBKTNV-1" source="BkXkO2_AsZ0Dx4q7YWzy-8" target="BkXkO2_AsZ0Dx4q7YWzy-10">
          <mxGeometry relative="1" as="geometry" />
        </mxCell>
        <mxCell id="BkXkO2_AsZ0Dx4q7YWzy-8" value="&lt;div&gt;Mostrar mensaje: &quot;El área del círculo con radio&quot;, radio, &quot;es:&quot;,area&lt;/div&gt;&lt;div&gt;&lt;br&gt;&lt;/div&gt;" style="shape=parallelogram;perimeter=parallelogramPerimeter;whiteSpace=wrap;html=1;fixedSize=1;verticalAlign=top;fillColor=#f8cecc;strokeColor=#b85450;" vertex="1" parent="WIyWlLk6GJQsqaUBKTNV-1">
          <mxGeometry x="90" y="680" width="290" height="70" as="geometry" />
        </mxCell>
        <mxCell id="BkXkO2_AsZ0Dx4q7YWzy-10" value="Fin" style="ellipse;whiteSpace=wrap;html=1;verticalAlign=top;" vertex="1" parent="WIyWlLk6GJQsqaUBKTNV-1">
          <mxGeometry x="195" y="870" width="80" height="80" as="geometry" />
        </mxCell>
      </root>
    </mxGraphModel>
  </diagram>
</mxfile>
